<svg width="20" height="20" xmlns="http://www.w3.org/2000/svg">
  <path d="M15.633 3H4.367C3.615 3 3 3.615 3 4.367v11.266C3 16.385 3.615 17 4.367 17h11.266c.752 0 1.367-.615 1.367-1.367V4.367C17 3.615 16.385 3 15.633 3zm-5.357 11.918l-.171.171a.525.525 0 01-.371.154h-.019a.524.524 0 01-.378-.182c-2.497-2.885-2.497-7.237 0-10.123a.525.525 0 01.378-.18h.019c.139 0 .272.054.37.153l.172.17a.525.525 0 01.026.714A6.438 6.438 0 008.744 10c0 1.546.553 3.04 1.558 4.205.18.208.168.52-.026.713zm1.832-1.832l-.171.171a.524.524 0 01-.371.154l-.03-.001a.525.525 0 01-.38-.197c-1.484-1.862-1.484-4.565 0-6.426a.523.523 0 01.78-.044l.172.171a.524.524 0 01.042.695 3.857 3.857 0 000 4.781.525.525 0 01-.042.696z" fill="#FFF" fill-rule="nonzero"/>
</svg>
